<svg xmlns="http://www.w3.org/2000/svg" xmlns:xlink="http://www.w3.org/1999/xlink" version="1.1" x="0px" y="0px" viewBox="0 0 100 100" enable-background="new 0 0 100 100" xml:space="preserve"><g><path fill="none" d="M50.354,12.68c-20.711,0-37.5,16.789-37.5,37.5c0,20.711,16.789,37.5,37.5,37.5s37.5-16.789,37.5-37.5   C87.854,29.469,71.065,12.68,50.354,12.68z M68.001,21.347l-3.103,12.242l-6.387-3.909L68.001,21.347z M50.354,68.93   c-10.355,0-18.75-8.395-18.75-18.75s8.395-18.75,18.75-18.75c10.355,0,18.75,8.395,18.75,18.75S60.71,68.93,50.354,68.93z"></path><circle cx="50.354" cy="50.18" r="18.75"></circle><path d="M50.354,5.18c-24.853,0-45,20.147-45,45c0,24.853,20.147,45,45,45c24.853,0,45-20.147,45-45   C95.354,25.327,75.207,5.18,50.354,5.18z M50.354,87.68c-20.711,0-37.5-16.789-37.5-37.5c0-20.711,16.789-37.5,37.5-37.5   s37.5,16.789,37.5,37.5C87.854,70.89,71.065,87.68,50.354,87.68z"></path><polygon points="68.001,21.347 58.512,29.679 64.899,33.588  "></polygon></g></svg>